{
    "asset": {
        "version": "2.0",
        "generator": "babylon.js glTF exporter for 3dsmax 2023 vCustom.Build.Version"
    },
    "scene": 0,
    "scenes": [
        {
            "nodes": [0]
        }
    ],
    "nodes": [
        {
            "children": [1],
            "translation": [0.6936346, -0.0694519058, 0.300441116],
            "name": "CIC_corridor_low"
        },
        {
            "children": [2],
            "mesh": 0,
            "translation": [-0.475191325, 0.159110263, -0.300441116],
            "name": "central_table_low"
        },
        {
            "children": [3],
            "translation": [-1.02860987, 0.450789779, 0.4213091],
            "rotation": [0.133834, -0.6943259, 0.6943259, -0.133833975],
            "scale": [0.99999994, -2.12231731, 0.99999994],
            "name": "mainCourante_low"
        },
        {
            "mesh": 1,
            "translation": [-0.7875791, -0.198513687, 0.8002677],
            "rotation": [0.133834, 0.6943259, 0.6943259, -0.13383396],
            "scale": [0.9999999, -0.9999999, 0.471182972],
            "name": "display_table_low"
        }
    ],
    "meshes": [
        {
            "primitives": [
                {
                    "attributes": {
                        "POSITION": 1,
                        "NORMAL": 2,
                        "TEXCOORD_0": 3
                    },
                    "indices": 0
                }
            ],
            "name": "central_table_low"
        },
        {
            "primitives": [
                {
                    "attributes": {
                        "POSITION": 5,
                        "NORMAL": 6,
                        "TEXCOORD_0": 7
                    },
                    "indices": 4
                }
            ],
            "name": "display_table_low"
        }
    ],
    "accessors": [
        {
            "bufferView": 0,
            "componentType": 5123,
            "count": 2292,
            "type": "SCALAR",
            "name": "accessorIndices"
        },
        {
            "bufferView": 1,
            "componentType": 5126,
            "count": 1060,
            "max": [0.947942853, 0.6199874, 1.50788331],
            "min": [-0.9635671, -0.118259124, -1.5086664],
            "type": "VEC3",
            "name": "accessorPositions"
        },
        {
            "bufferView": 1,
            "byteOffset": 12720,
            "componentType": 5126,
            "count": 1060,
            "type": "VEC3",
            "name": "accessorNormals"
        },
        {
            "bufferView": 2,
            "componentType": 5126,
            "count": 1060,
            "type": "VEC2",
            "name": "accessorUVs"
        },
        {
            "bufferView": 0,
            "byteOffset": 4584,
            "componentType": 5123,
            "count": 198,
            "type": "SCALAR",
            "name": "accessorIndices"
        },
        {
            "bufferView": 1,
            "byteOffset": 25440,
            "componentType": 5126,
            "count": 46,
            "max": [0.862235, 0.6199874, 1.25599062],
            "min": [-0.8231439, 0.618923247, -1.42493033],
            "type": "VEC3",
            "name": "accessorPositions"
        },
        {
            "bufferView": 1,
            "byteOffset": 25992,
            "componentType": 5126,
            "count": 46,
            "type": "VEC3",
            "name": "accessorNormals"
        },
        {
            "bufferView": 2,
            "byteOffset": 8480,
            "componentType": 5126,
            "count": 46,
            "type": "VEC2",
            "name": "accessorUVs"
        }
    ],
    "bufferViews": [
        {
            "buffer": 0,
            "byteLength": 4980,
            "name": "bufferViewScalar"
        },
        {
            "buffer": 0,
            "byteOffset": 4980,
            "byteLength": 26544,
            "byteStride": 12,
            "name": "bufferViewFloatVec3"
        },
        {
            "buffer": 0,
            "byteOffset": 31524,
            "byteLength": 8848,
            "byteStride": 8,
            "name": "bufferViewFloatVec2"
        }
    ],
    "buffers": [
        {
            "uri": "table.bin",
            "byteLength": 40372
        }
    ]
}
